name Walk9.mot
datacolumns 19
datarows 10
range 1.96000000 2.00500000
endheader

                time	   L_ground_force_vx	   L_ground_force_vy	   L_ground_force_vz	   L_ground_force_px	   L_ground_force_py	   L_ground_force_pz	   R_ground_force_vx	   R_ground_force_vy	   R_ground_force_vz	   R_ground_force_px	   R_ground_force_py	   R_ground_force_pz	   L_ground_torque_x	   L_ground_torque_y	   L_ground_torque_z	   R_ground_torque_x	   R_ground_torque_y	   R_ground_torque_z	
          1.96000000	          0.03763823	          0.14540124	         -0.00238474	         -0.00019591	          0.00000000	         -0.00007469	        -24.08712205	        528.37687220	        -28.57416641	          0.33059290	          0.00000000	          0.07327834	          0.00000000	          0.00014726	          0.00000000	          0.00000000	          0.72181356	          0.00000000	
          1.96500000	          0.02671829	          0.10974847	         -0.00192459	         -0.00018693	          0.00000000	         -0.00007325	        -23.37171284	        525.06934183	        -29.31591154	          0.33370981	          0.00000000	          0.07279434	          0.00000000	          0.00016925	          0.00000000	          0.00000000	          0.74286486	          0.00000000	
          1.97000000	          0.01760245	          0.07820526	         -0.00147729	         -0.00016639	          0.00000000	         -0.00006654	        -22.67191820	        522.79418677	        -30.05646912	          0.33696670	          0.00000000	          0.07229344	          0.00000000	          0.00016996	          0.00000000	          0.00000000	          0.76144361	          0.00000000	
          1.97500000	          0.01036450	          0.05179212	         -0.00107361	         -0.00014006	          0.00000000	         -0.00005697	        -21.94679670	        521.53945697	        -30.75750566	          0.34033624	          0.00000000	          0.07177512	          0.00000000	          0.00015698	          0.00000000	          0.00000000	          0.77833521	          0.00000000	
          1.98000000	          0.00490323	          0.03075776	         -0.00072983	         -0.00011210	          0.00000000	         -0.00004633	        -21.16698697	        521.27767674	        -31.39412089	          0.34379076	          0.00000000	          0.07123971	          0.00000000	          0.00013624	          0.00000000	          0.00000000	          0.79431520	          0.00000000	
          1.98500000	          0.00101324	          0.01483626	         -0.00045165	         -0.00008530	          0.00000000	         -0.00003584	        -20.31506200	        521.97605356	        -31.95519312	          0.34730121	          0.00000000	          0.07068839	          0.00000000	          0.00011216	          0.00000000	          0.00000000	          0.81032092	          0.00000000	
          1.99000000	         -0.00156147	          0.00345274	         -0.00023754	         -0.00006137	          0.00000000	         -0.00002628	        -19.38530389	        523.60501280	        -32.44188676	          0.35084041	          0.00000000	          0.07012422	          0.00000000	          0.00008785	          0.00000000	          0.00000000	          0.82728771	          0.00000000	
          1.99500000	         -0.00308909	         -0.00412035	         -0.00008145	         -0.00004117	          0.00000000	         -0.00001807	        -18.38413159	        526.13688901	        -32.86528164	          0.35438328	          0.00000000	          0.06955140	          0.00000000	          0.00006531	          0.00000000	          0.00000000	          0.84588228	          0.00000000	
          2.00000000	         -0.00382441	         -0.00865097	          0.00002509	         -0.00002496	          0.00000000	         -0.00001138	        -17.32964408	        529.54290212	        -33.24311533	          0.35790499	          0.00000000	          0.06897418	          0.00000000	          0.00004569	          0.00000000	          0.00000000	          0.86669325	          0.00000000	
          2.00500000	         -0.00399349	         -0.01087217	          0.00009143	         -0.00001259	          0.00000000	         -0.00000618	        -16.24979285	        533.79424328	        -33.59616688	          0.36138259	          0.00000000	          0.06839647	          0.00000000	          0.00002950	          0.00000000	          0.00000000	          0.89026847	          0.00000000	
